<svg width="1024" height="1024" viewBox="0 0 1024 1024" fill="none" xmlns="http://www.w3.org/2000/svg">
<g clip-path="url(#clip0_1_15)">
<rect width="1024" height="1024" fill="#00C38B"/>
<path d="M372.475 367.768C373.113 368.346 375.143 369.958 377.724 369.837C384.799 369.533 389.728 357.335 391.468 353.107C399.848 332.909 410.431 313.866 421.044 294.978C438.296 264.225 453.519 229.608 499.796 169.014C518.237 144.831 514.671 148.815 536.708 128.313C548.103 117.697 560.427 108.541 574.547 102.67C589.683 96.3735 604.878 97.2252 616.447 109.758C628.103 122.381 623.435 137.712 617.752 152.039C613.489 162.838 608.096 169.591 598.817 181.424C592.38 189.637 590.06 192.314 585.073 198.702C578.81 206.702 570.256 218.778 561.383 235.356C526.964 300.758 502.55 349.029 497.879 359.736C496.4 363.113 494.11 369.197 495.791 375.797C496.864 379.934 498.15 383.52 500.721 384.467C506.467 386.582 512.667 376.527 515.654 370.2C558.597 279.733 566.774 250.168 628.16 172.966C641.846 155.749 659.099 132.662 674.38 117.028C685.224 105.925 697.49 96.4649 711.379 89.9246C728.487 81.8637 750.002 83.8105 758.497 94.9437C761.745 99.2023 763.688 103.491 764.645 107.75C767.196 119.187 763.659 130.229 756.932 142.367C744.551 164.664 728.661 178.291 723.818 182.58C709.378 195.356 696.91 214.094 672.001 251.568C627.144 319.003 604.007 395.054 614.039 402.138C614.357 402.381 615.575 403.111 617.112 403.081C625.289 402.898 630.885 381.058 632.567 374.974C635.061 365.97 649.037 339.658 676.989 287.032C694.242 254.576 705.087 234.165 725.152 210.593C744.956 187.353 771.749 156.206 797.759 162.379C809.532 165.178 820.289 175.642 824.233 187.87C825.654 192.25 828.669 203.201 820.782 224.281C811.068 250.167 796.164 261.605 781.667 278.516C771.112 290.836 761.602 309.756 742.58 347.595C728.836 374.942 712.163 411.716 696.447 457.104C695.171 461.545 691.807 474.017 681.775 480.77C668.582 489.652 651.619 483.903 645.182 481.986C607.632 470.792 567.647 481.804 539.403 489.591C539.403 489.591 479.353 506.138 436.933 560.223C420.869 580.664 410.981 602.383 409.415 605.972C403.442 619.721 396.57 637.121 394.221 661.154C389.582 708.82 407.908 745.137 445.051 771.392C506.029 814.465 597.921 804.396 642.63 759.529C649.908 752.228 665.653 736.441 663.855 716.547C662.492 701.521 651.387 686.768 637.614 681.079C613.344 671.041 598.904 696.654 555.727 698.965C539.924 699.817 514.553 701.186 499.621 682.57C482.397 661.064 493.387 626.934 494.054 624.895C499.302 609.077 508.813 599.191 513.974 594.537C528.733 583.891 559.788 564.575 602.845 560.62C622.04 558.856 660.895 555.206 698.619 580.18C752.637 615.982 761.741 680.776 762.756 688.925C772.586 767.555 718.653 826.598 696.851 850.419C652.196 899.241 601.861 915.881 573.529 924.853C548.361 932.822 470.796 956.093 381.807 921.872C325.35 900.153 290.848 865.473 283.275 857.751C259.962 833.903 240.883 805.705 226.88 774.406C220.646 760.444 206.496 726.192 200.697 670.191C186.749 535.526 229.113 405.03 276.928 332.365C295.486 304.136 330.89 247.862 346.721 230.795C356.347 220.422 368.323 205.882 399.028 187.752C408.364 182.247 418.078 177.319 428.72 176.254C436.462 175.494 442.232 177.775 445.479 182.247C449.075 187.205 448.93 194.08 447.393 201.076C441.217 229.213 413.149 264.315 394.56 296.773C377.452 326.583 364.665 360.65 372.465 367.772L372.475 367.768Z" fill="white"/>
</g>
<defs>
<clipPath id="clip0_1_15">
<rect width="1024" height="1024" rx="100" fill="white"/>
</clipPath>
</defs>
</svg>
