<?xml version="1.0" encoding="UTF-8" standalone="no"?>
<svg
   width="200"
   height="200"
   viewBox="0 0 200 200"
   version="1.1"
   id="svg3"
   sodipodi:docname="graasp.svg"
   inkscape:version="1.2.2 (b0a84865, 2022-12-01)"
   xmlns:inkscape="http://www.inkscape.org/namespaces/inkscape"
   xmlns:sodipodi="http://sodipodi.sourceforge.net/DTD/sodipodi-0.dtd"
   xmlns="http://www.w3.org/2000/svg"
   xmlns:svg="http://www.w3.org/2000/svg">
  <sodipodi:namedview
     id="namedview7"
     pagecolor="#505050"
     bordercolor="#eeeeee"
     borderopacity="1"
     inkscape:showpageshadow="0"
     inkscape:pageopacity="0"
     inkscape:pagecheckerboard="0"
     inkscape:deskcolor="#505050"
     showgrid="false"
     inkscape:zoom="1.18"
     inkscape:cx="77.542373"
     inkscape:cy="103.81356"
     inkscape:window-width="1725"
     inkscape:window-height="885"
     inkscape:window-x="0"
     inkscape:window-y="25"
     inkscape:window-maximized="0"
     inkscape:current-layer="svg3" />
  <defs
     id="defs7" />
  <rect
     x="0"
     y="0"
     width="200"
     height="200"
     fill="#5050d2"
     rx="30"
     ry="30"
     id="rect3" />
  <path
     fill="#ffffff"
     stroke="none"
     stroke-width="9.17067"
     d="m 72.933008,73.236397 c 0.123747,0.106872 0.517496,0.404997 1.018115,0.382498 1.372476,-0.05625 2.328718,-2.311844 2.666211,-3.093714 1.625602,-3.734949 3.678708,-7.256154 5.737431,-10.74924 3.346834,-5.686802 6.29992,-12.087969 15.277305,-23.292824 3.57746,-4.471822 2.88559,-3.734951 7.16053,-7.526156 2.2106,-1.9631 4.6012,-3.6562 7.34054,-4.741808 2.9362,-1.164363 5.88367,-1.006866 8.12802,1.310608 2.26122,2.334343 1.35561,5.169306 0.25312,7.818649 -0.82687,1.996844 -1.87309,3.245579 -3.67308,5.433675 -1.24873,1.518736 -1.69873,2.013731 -2.66622,3.194962 -1.21498,1.479361 -2.87434,3.71245 -4.59556,6.77804 -6.6768,12.093591 -11.412985,21.020354 -12.318597,23.00033 -0.286877,0.624367 -0.731242,1.749356 -0.404996,2.96996 0.20812,0.76499 0.457608,1.428088 0.956244,1.603109 1.114658,0.391248 2.317459,-1.468112 2.896829,-2.638093 8.33052,-16.728541 9.91676,-22.195966 21.82473,-36.472031 2.65496,-3.183711 6.0018,-7.453037 8.96614,-10.344249 2.10371,-2.053092 4.48306,-3.802449 7.1774,-5.011808 3.31871,-1.490606 7.4924,-1.130614 9.14051,0.92811 0.62998,0.787489 1.00685,1.580609 1.19248,2.368098 0.49499,2.114973 -0.19125,4.156822 -1.49622,6.401167 -2.40185,4.123072 -5.48431,6.643036 -6.42368,7.436157 -2.80121,2.362468 -5.21993,5.827423 -10.05174,12.757335 -8.70177,12.470465 -13.19046,26.532784 -11.24423,27.843393 0.0618,0.04499 0.29811,0.180001 0.59623,0.174376 1.58624,-0.03375 2.67185,-4.072448 2.9981,-5.197435 0.48374,-1.664977 3.19496,-6.530539 8.61738,-16.261666 3.34683,-6.001799 5.45055,-9.776123 9.34301,-14.135448 3.84183,-4.297444 9.03926,-10.057367 14.08482,-8.915512 2.28373,0.517496 4.37057,2.452472 5.13556,4.713692 0.27562,0.809994 0.86061,2.834962 -0.66937,6.73304 -1.88435,4.786815 -4.77556,6.901788 -7.58803,10.029244 -2.04746,2.2781 -3.89245,5.776799 -7.5824,12.774216 -2.66621,5.056809 -5.90055,11.857347 -8.94926,20.249733 -0.2475,0.821245 -0.89999,3.127468 -2.84622,4.376192 -2.55933,1.642485 -5.84992,0.579375 -7.09864,0.225011 -7.28429,-2.069976 -15.04107,-0.03375 -20.51975,1.406231 0,0 -11.649224,3.059949 -19.878496,13.061081 -3.116208,3.77996 -5.034316,7.79616 -5.338053,8.45989 -1.158738,2.54248 -2.491853,5.75993 -2.947467,10.20362 -0.899987,8.81426 2.654967,15.53043 9.860497,20.38474 11.829223,7.9649 29.654619,6.10305 38.328259,-2.19372 1.41186,-1.34998 4.4662,-4.26931 4.11746,-7.94801 -0.26439,-2.77873 -2.41872,-5.50681 -5.09057,-6.55867 -4.70806,-1.85624 -7.50926,2.87996 -15.8848,3.30744 -3.06559,0.15751 -7.9874,0.41063 -10.884229,-3.03183 -3.341213,-3.97683 -1.209372,-10.28799 -1.079992,-10.66486 1.018109,-2.92497 2.863082,-4.75307 3.864331,-5.61369 2.86309,-1.96871 8.88739,-5.54054 17.2404,-6.27178 3.72371,-0.32625 11.26112,-1.00124 18.57915,3.61683 10.47922,6.62053 12.24545,18.60164 12.44233,20.10911 1.90686,14.54044 -8.55551,25.45843 -12.78546,29.86275 -8.66239,9.02801 -18.42727,12.10484 -23.92282,13.76419 -4.88243,1.47374 -19.929118,5.77681 -37.192029,-0.55125 C 63.7925,171.6839 57.098834,165.27147 55.630729,163.84274 c -4.522446,-4.40994 -8.223646,-9.62425 -10.940488,-15.4123 -1.209354,-2.58184 -3.954325,-8.91551 -5.079306,-19.271 -2.705592,-24.90156 5.512429,-49.032506 14.787933,-62.470457 3.599958,-5.219936 10.467997,-15.626053 13.539206,-18.781641 1.867471,-1.918095 4.190569,-4.606812 10.147365,-7.95927 1.81123,-1.018109 3.695582,-1.929351 5.759925,-2.126223 1.501862,-0.140622 2.621218,0.281245 3.251211,1.108114 0.697491,0.916861 0.669366,2.18809 0.371248,3.481831 -1.198106,5.203054 -6.643043,11.69422 -10.248615,17.69602 -3.318709,5.512429 -5.79931,11.812349 -4.2862,13.128583 z"
     id="graasp-logo" />
</svg>
